<?xml version="1.0" encoding="UTF-8"?>
<svg width="16px" height="12px" viewBox="0 0 16 12" version="1.1" xmlns="http://www.w3.org/2000/svg" xmlns:xlink="http://www.w3.org/1999/xlink">
    <!-- Generator: Sketch 47.1 (45422) - http://www.bohemiancoding.com/sketch -->
    <title>Combined Shape</title>
    <desc>Created with Sketch.</desc>
    <defs></defs>
    <g id="用户端" stroke="none" stroke-width="1" fill="none" fill-rule="evenodd" fill-opacity="0.5">
        <g id="10-个人中心" transform="translate(-35.000000, -612.000000)" fill-rule="nonzero" fill="#FFFFFF">
            <g id="Menus" transform="translate(0.000000, 64.000000)">
                <g id="Logout" transform="translate(35.000000, 542.000000)">
                    <path d="M3.31764502,13 L15,13 C15.5522847,13 16,12.5522847 16,12 C16,11.4477153 15.5522847,11 15,11 L3.31764502,11 L6.67882251,7.63882251 C7.05372583,7.26391919 7.05372583,6.65608081 6.67882251,6.28117749 C6.30391919,5.90627417 5.69608081,5.90627417 5.32117749,6.28117749 L0.409412988,11.192942 C0.16117749,11.3749033 0,11.6686292 0,12 C0,12.3313708 0.16117749,12.6250967 0.409412988,12.807058 L5.32117749,17.7188225 C5.69608081,18.0937258 6.30391919,18.0937258 6.67882251,17.7188225 C7.05372583,17.3439192 7.05372583,16.7360808 6.67882251,16.3611775 L3.31764502,13 Z" id="Combined-Shape"></path>
                </g>
            </g>
        </g>
    </g>
</svg>