<?xml version="1.0" encoding="UTF-8"?>
<svg width="18px" height="18px" viewBox="0 0 18 18" version="1.1" xmlns="http://www.w3.org/2000/svg" xmlns:xlink="http://www.w3.org/1999/xlink">
    <!-- Generator: Sketch 47.1 (45422) - http://www.bohemiancoding.com/sketch -->
    <title>ic_checked</title>
    <desc>Created with Sketch.</desc>
    <defs></defs>
    <g id="用户端" stroke="none" stroke-width="1" fill="none" fill-rule="evenodd">
        <g id="18-购物车" transform="translate(-15.000000, -633.000000)" fill="#F0DFB4">
            <g id="buy" transform="translate(0.000000, 617.000000)">
                <path d="M23.1492,29.0294343 C22.9248,29.2532418 22.5612,29.2532418 22.3368,29.0294343 C22.3278,29.020434 22.3314,29.0066336 22.3242,28.9976333 C22.3188,28.9922331 22.3116,28.9946332 22.3056,28.990433 L19.9734,26.6569552 C19.7298,26.4133471 19.7298,26.018534 19.9734,25.7737258 C20.217,25.5301177 20.6118,25.5301177 20.8566,25.7737258 L22.818,27.7363912 L28.4148,22.1382046 C28.6398,21.9131971 29.0034,21.9131971 29.2278,22.1382046 C29.4522,22.3620121 29.4522,22.7262242 29.2278,22.9506317 L23.1492,29.0294343 Z M24,34 C19.029,34 15,29.9708657 15,25.0003 C15,20.0297343 19.029,16 24,16 C28.9704,16 33,20.0297343 33,25.0003 C33,29.9708657 28.9704,34 24,34 L24,34 Z" id="ic_checked"></path>
            </g>
        </g>
    </g>
</svg>