<?xml version="1.0" encoding="UTF-8"?>
<svg width="28px" height="28px" viewBox="0 0 28 28" version="1.1" xmlns="http://www.w3.org/2000/svg" xmlns:xlink="http://www.w3.org/1999/xlink">
    <!-- Generator: Sketch 47.1 (45422) - http://www.bohemiancoding.com/sketch -->
    <title>icon-chart</title>
    <desc>Created with Sketch.</desc>
    <defs></defs>
    <g id="用户端" stroke="none" stroke-width="1" fill="none" fill-rule="evenodd">
        <g id="主页" transform="translate(-313.000000, -70.000000)" fill-rule="nonzero" fill="#F0DFB4">
            <g id="subNav" transform="translate(0.000000, 64.000000)">
                <g id="btn-chart" transform="translate(313.000000, 6.000000)">
                    <path d="M24,24.5238218 C24,24.9159146 24,25.3080074 24,25.6999974 C23.9097835,25.9331045 23.9202264,26.1952537 23.7686769,26.4137112 C23.5996037,26.6576127 23.433485,26.8947806 23.1411346,27 C17.1288731,27 11.1165607,27 5.10429915,27 C4.70303682,26.9444861 4.39891901,26.7437107 4.17854823,26.3981365 C4.05272394,26.200548 4.09984437,25.9620437 4,25.7618852 C4,25.3080074 4,24.8540268 4,24.3999948 C4.08726195,23.8712761 4.07804162,23.3347956 4.08384889,22.803661 C4.09867273,21.4329295 4.24064533,20.0707822 4.31644553,18.7045227 C4.38093685,17.5444358 4.47115339,16.3849143 4.55887378,15.2261125 C4.65749557,13.9235913 4.73467118,12.6195793 4.84337931,11.3177263 C4.88622071,10.8054047 4.88596598,10.2881999 4.98326333,9.78220076 C5.15666652,8.87989382 5.85308103,8.31488537 6.75906685,8.29612372 C7.10867498,8.28887607 7.45008161,8.35796007 7.79744836,8.36196941 C7.99433535,8.36417967 8.08852528,8.29617512 8.11002239,8.08075023 C8.29779095,6.19954766 8.99456206,4.51331209 10.0796565,2.98683323 C10.6382246,2.20105413 11.3673942,1.61712985 12.2549394,1.23500895 C12.6591053,1.06101391 13.0930208,1.08717742 13.5092598,1 C13.5501145,1 13.5910711,1 13.6319767,1 C13.8568813,1.0492429 14.0819386,1.0492429 14.3068432,1 C14.3681761,1 14.4295601,1 14.490893,1 C16.4726511,1.17235019 17.6258536,2.47363781 18.5415691,4.06678476 C19.2301897,5.26490897 19.6221807,6.57570593 19.8259448,7.94206821 C19.8658825,8.21038555 19.9838109,8.31437136 20.2498758,8.30347417 C20.5966313,8.28933869 20.9446093,8.2957639 21.2918232,8.30208632 C21.9764194,8.31473116 22.5152734,8.70908567 22.7764988,9.35371546 C22.9426175,9.76364469 22.9788365,10.1962421 23.0064975,10.6237508 C23.0663023,11.5474923 23.1378744,12.4703599 23.2145406,13.3924566 C23.2911558,14.314399 23.3563094,15.2374723 23.4317021,16.1593633 C23.4837129,16.7944323 23.5316993,17.4306837 23.5796348,18.0664209 C23.6491183,18.988826 23.7158001,19.9115908 23.7976113,20.8332763 C23.855786,21.4883406 23.8902221,22.1462321 23.9118211,22.8045862 C23.9304146,23.377819 23.9198698,23.9534676 24,24.5238218 Z M13.6318748,1.00005145 C13.8567794,1.14504769 14.0818367,1.14406338 14.3067413,1.00005145 C14.0817858,1.00005145 13.8567794,1.00005145 13.6318748,1.00005145 Z M18.0174371,8.43197867 C18.2412719,8.4356796 18.3049482,8.37466567 18.2438699,8.14675015 C18.1242604,7.70017143 18.0475433,7.24146191 17.9193247,6.79765888 C17.5433292,5.4973479 17.0267364,4.26987324 15.9900869,3.34669718 C15.3064077,2.73774022 14.5361796,2.36363803 13.5871486,2.52925458 C12.3662964,2.742315 11.5362637,3.49853805 10.9137646,4.51711584 C10.2494429,5.60405801 9.92153562,6.81040651 9.74008377,8.06630634 C9.70401755,8.31591342 9.76152992,8.37158154 9.99254741,8.37024511 C12.0242276,8.35847411 14.0557041,8.37918902 16.0869258,8.42822634 C16.7304125,8.42827774 17.3740522,8.42138991 18.0174371,8.43197867 Z M11.0545145,11.3635253 C11.0519675,10.5332323 10.3701221,9.85035953 9.54645692,9.85308383 C8.72396342,9.85575671 8.04660082,10.5441294 8.0493007,11.3747309 C8.05200059,12.2042015 8.73461007,12.8877425 9.557613,12.885121 C10.3804122,12.8825509 11.0571635,12.194538 11.0545145,11.3635253 Z M16.8223611,11.3679973 C16.8218007,12.1980847 17.5013028,12.8845042 18.324051,12.8851724 C19.1476143,12.8856864 19.8271164,12.201066 19.8276258,11.3702076 C19.8281352,10.5398117 19.1490916,9.85354648 18.3261396,9.85303244 C17.5034933,9.85256982 16.8229214,10.5382182 16.8223611,11.3679973 Z" id="icon-chart"></path>
                </g>
            </g>
        </g>
    </g>
</svg>