<?xml version="1.0" encoding="UTF-8"?>
<svg width="8px" height="14px" viewBox="0 0 8 14" version="1.1" xmlns="http://www.w3.org/2000/svg" xmlns:xlink="http://www.w3.org/1999/xlink">
    <!-- Generator: Sketch 47.1 (45422) - http://www.bohemiancoding.com/sketch -->
    <title>Fill 1</title>
    <desc>Created with Sketch.</desc>
    <defs></defs>
    <g id="用户端" stroke="none" stroke-width="1" fill="none" fill-rule="evenodd">
        <g id="03-支付订单" transform="translate(-352.000000, -92.000000)" fill="#9B9B9B">
            <g id="address" transform="translate(0.000000, 74.000000)">
                <path d="M361.93232,21.0231104 L355.999928,27.4911679 L350.06811,21.0231104 C349.854644,20.8107896 349.509552,20.8107896 349.296658,21.0231104 C349.083765,21.2365757 349.083765,21.5816685 349.296658,21.7951339 L355.554684,28.6174409 C355.57357,28.6443387 355.566703,28.68211 355.591883,28.7067186 C355.704053,28.8183158 355.851132,28.8681053 355.997639,28.8623824 C356.145863,28.8692499 356.295804,28.8200327 356.408546,28.7072909 C356.433727,28.68211 356.426859,28.6437664 356.446317,28.615724 L362.703771,21.793417 C362.916092,21.5810962 362.916092,21.2354311 362.703771,21.0231104 C362.490878,20.809645 362.145213,20.809645 361.93232,21.0231104 Z" id="Fill-1" transform="translate(356.000000, 24.863011) rotate(-90.000000) translate(-356.000000, -24.863011) "></path>
            </g>
        </g>
    </g>
</svg>