<?xml version="1.0" encoding="UTF-8"?>
<svg width="16px" height="16px" viewBox="0 0 16 16" version="1.1" xmlns="http://www.w3.org/2000/svg" xmlns:xlink="http://www.w3.org/1999/xlink">
    <!-- Generator: Sketch 47.1 (45422) - http://www.bohemiancoding.com/sketch -->
    <title>Shape Copy</title>
    <desc>Created with Sketch.</desc>
    <defs></defs>
    <g id="用户端" stroke="none" stroke-width="1" fill="none" fill-rule="evenodd">
        <g id="商品详情" transform="translate(-224.000000, -638.000000)" fill-rule="nonzero" fill="#D92926">
            <g id="product-promt" transform="translate(15.000000, 594.000000)">
                <path d="M216.789404,57.1978004 L211.132622,51.3587735 L212.582806,50.1776371 L215.853715,52.7825362 C217.194602,51.1641393 220.16961,47.9540077 224.272243,45.3997667 L224.618794,46.2076321 C220.849384,49.721713 217.765078,54.6702216 216.789404,57.1978004 Z M224.013662,50.3509415 C224.136288,50.8788535 224.202932,51.4307615 224.202932,51.9960007 C224.202932,55.9766706 220.977341,59.2027995 216.997334,59.2027995 C213.017328,59.2027995 209.791736,55.9766706 209.791736,51.9960007 C209.791736,48.0153308 213.017328,44.7892018 216.997334,44.7892018 C217.965012,44.7892018 218.890037,44.9811698 219.735088,45.3277787 L219.735088,44.47992 C218.860713,44.1599733 217.94102,44 216.997334,44 C215.917694,44 214.870043,44.2106316 213.883705,44.6292285 C212.932023,45.031828 212.076308,45.607732 211.340553,46.3436094 C210.607464,47.0768205 210.02899,47.9326779 209.626458,48.8871855 C209.210596,49.8683553 209,50.9161806 209,51.9960007 C209,53.0758207 209.210596,54.1236461 209.629124,55.1101483 C210.031656,56.0619897 210.607464,56.917847 211.343219,57.6537244 C212.078974,58.3869355 212.932023,58.9655058 213.886371,59.3681053 C214.872709,59.784036 215.92036,59.9973338 217,59.9973338 C218.07964,59.9973338 219.127291,59.7867022 220.113629,59.3681053 C221.065312,58.9655057 221.921026,58.3896017 222.656781,57.6537244 C223.38987,56.9205133 223.968344,56.0646559 224.370876,55.1101483 C224.786738,54.1236461 225,53.0758207 225,51.9960007 C225,51.4387602 224.944019,50.8868522 224.82939,50.3509415 L224.013662,50.3509415 Z M224.013662,50.3509415 C224.136288,50.8788535 224.202932,51.4307615 224.202932,51.9960007 C224.202932,55.9766706 220.977341,59.2027995 216.997334,59.2027995 C213.017328,59.2027995 209.791736,55.9766706 209.791736,51.9960007 C209.791736,48.0153308 213.017328,44.7892018 216.997334,44.7892018 C217.965012,44.7892018 218.890037,44.9811698 219.735088,45.3277787 L219.735088,44.47992 C218.860713,44.1599733 217.94102,44 216.997334,44 C215.917694,44 214.870043,44.2106316 213.883705,44.6292285 C212.932023,45.031828 212.076308,45.607732 211.340553,46.3436094 C210.607464,47.0768205 210.02899,47.9326779 209.626458,48.8871855 C209.210596,49.8683553 209,50.9161806 209,51.9960007 C209,53.0758207 209.210596,54.1236461 209.629124,55.1101483 C210.031656,56.0619897 210.607464,56.917847 211.343219,57.6537244 C212.078974,58.3869355 212.932023,58.9655058 213.886371,59.3681053 C214.872709,59.784036 215.92036,59.9973338 217,59.9973338 C218.07964,59.9973338 219.127291,59.7867022 220.113629,59.3681053 C221.065312,58.9655057 221.921026,58.3896017 222.656781,57.6537244 C223.38987,56.9205133 223.968344,56.0646559 224.370876,55.1101483 C224.786738,54.1236461 225,53.0758207 225,51.9960007 C225,51.4387602 224.944019,50.8868522 224.82939,50.3509415 L224.013662,50.3509415 Z M224.013662,50.3509415 C224.136288,50.8788535 224.202932,51.4307615 224.202932,51.9960007 C224.202932,55.9766706 220.977341,59.2027995 216.997334,59.2027995 C213.017328,59.2027995 209.791736,55.9766706 209.791736,51.9960007 C209.791736,48.0153308 213.017328,44.7892018 216.997334,44.7892018 C217.965012,44.7892018 218.890037,44.9811698 219.735088,45.3277787 L219.735088,44.47992 C218.860713,44.1599733 217.94102,44 216.997334,44 C215.917694,44 214.870043,44.2106316 213.883705,44.6292285 C212.932023,45.031828 212.076308,45.607732 211.340553,46.3436094 C210.607464,47.0768205 210.02899,47.9326779 209.626458,48.8871855 C209.210596,49.8683553 209,50.9161806 209,51.9960007 C209,53.0758207 209.210596,54.1236461 209.629124,55.1101483 C210.031656,56.0619897 210.607464,56.917847 211.343219,57.6537244 C212.078974,58.3869355 212.932023,58.9655058 213.886371,59.3681053 C214.872709,59.784036 215.92036,59.9973338 217,59.9973338 C218.07964,59.9973338 219.127291,59.7867022 220.113629,59.3681053 C221.065312,58.9655057 221.921026,58.3896017 222.656781,57.6537244 C223.38987,56.9205133 223.968344,56.0646559 224.370876,55.1101483 C224.786738,54.1236461 225,53.0758207 225,51.9960007 C225,51.4387602 224.944019,50.8868522 224.82939,50.3509415 L224.013662,50.3509415 Z" id="Shape-Copy"></path>
            </g>
        </g>
    </g>
</svg>