<?xml version="1.0" encoding="UTF-8"?>
<svg width="72px" height="72px" viewBox="0 0 72 72" version="1.1" xmlns="http://www.w3.org/2000/svg" xmlns:xlink="http://www.w3.org/1999/xlink">
    <!-- Generator: Sketch 47.1 (45422) - http://www.bohemiancoding.com/sketch -->
    <title>Fill 1</title>
    <desc>Created with Sketch.</desc>
    <defs></defs>
    <g id="用户端" stroke="none" stroke-width="1" fill="none" fill-rule="evenodd">
        <g id="04-支付成功" transform="translate(-152.000000, -114.000000)" fill="#000000">
            <path d="M187.973,118.49775 C170.58275,118.49775 156.4865,132.603 156.4865,149.99775 C156.4865,167.3925 170.58275,181.4955 187.973,181.4955 C205.361,181.4955 219.4595,167.3925 219.4595,149.99775 C219.4595,149.316 219.302,148.6815 219.257,148.01325 L223.406,143.98125 C223.7345,145.94325 223.946,147.9435 223.946,149.99775 C223.946,169.881 207.8405,185.9955 187.973,185.9955 C168.1055,185.9955 152,169.881 152,149.99775 C152,130.1145 168.1055,114 187.973,114 C197.09225,114 205.388,117.42 211.733,123.01575 L208.4255,126.231 C202.913,121.4745 195.8255,118.49775 187.973,118.49775 M223.3115,131.27775 L191.906,162.519 C191.85875,162.57975 191.8745,162.663 191.825,162.717 C191.375,163.167 190.7855,163.3605 190.1915,163.347 C189.59525,163.36725 188.99675,163.17825 188.54,162.7215 C188.47475,162.663 188.495,162.56175 188.44325,162.48975 L175.157,149.27325 C174.28625,148.40925 174.28625,147.00525 175.157,146.13675 C176.02775,145.26825 177.4385,145.26825 178.30925,146.13675 L190.17575,157.94475 L220.148,128.13225 C221.021,127.2615 222.43625,127.2615 223.30925,128.13225 C224.1845,128.9985 224.1845,130.40925 223.3115,131.27775" id="Fill-1"></path>
        </g>
    </g>
</svg>