<?xml version="1.0" encoding="UTF-8"?>
<svg width="21px" height="17px" viewBox="0 0 21 17" version="1.1" xmlns="http://www.w3.org/2000/svg" xmlns:xlink="http://www.w3.org/1999/xlink">
    <!-- Generator: Sketch 47.1 (45422) - http://www.bohemiancoding.com/sketch -->
    <title>Shape</title>
    <desc>Created with Sketch.</desc>
    <defs></defs>
    <g id="用户端" stroke="none" stroke-width="1" fill="none" fill-rule="evenodd">
        <g id="08-商品详情-扫一扫进入" transform="translate(-110.000000, -634.000000)" fill-rule="nonzero" fill="#000000">
            <g id="buy" transform="translate(0.000000, 617.000000)">
                <path d="M127.306649,23.4232844 C126.964921,23.4522699 126.616074,23.5464728 126.260107,23.7058931 C125.946856,23.8508206 125.608687,24.0682119 125.245601,24.358067 C124.882515,24.647922 124.522988,25.0464728 124.167021,25.5537191 C123.839532,26.0464728 123.526281,26.5174873 123.227269,26.9667626 C122.928257,27.416038 122.639923,27.8689365 122.362269,28.3254583 C122.084615,28.78198 121.806961,29.2493713 121.529307,29.7276322 C121.251653,30.2058931 120.970439,30.7203858 120.685665,31.2711105 C120.31546,31.9667626 119.827785,32.474009 119.222641,32.7928496 C118.617498,33.1116902 117.894885,33.2783568 117.054803,33.2928496 C116.542211,33.2928496 116.033178,33.2493713 115.527705,33.1624148 C115.022232,33.0754583 114.538117,32.9450235 114.07536,32.7711105 C113.612603,32.5971974 113.181883,32.3870525 112.7832,32.1406757 C112.384517,31.8942989 112.042789,31.6116902 111.758016,31.2928496 C111.003366,30.4522699 110.629601,29.7022699 110.63672,29.0428496 C110.643839,28.3834293 111.024724,27.8870525 111.779374,27.5537191 C112.121102,27.3942989 112.473509,27.2674873 112.836595,27.1732844 C113.199682,27.0790815 113.530731,27.0029945 113.829743,26.9450235 C114.18571,26.8870525 114.527438,26.8435742 114.854928,26.8145887 C115.054269,27.0609655 115.310565,27.2638641 115.623816,27.4232844 C115.894351,27.5682119 116.232519,27.6805307 116.638322,27.7602409 C117.044124,27.839951 117.538918,27.8290815 118.122704,27.7276322 C118.59258,27.6551684 119.009061,27.5211105 119.372147,27.3254583 C119.735234,27.1298061 120.076962,26.8870525 120.397332,26.5971974 C120.717702,26.3073423 121.030953,25.974009 121.337085,25.5971974 C121.643216,25.2203858 121.967146,24.8145887 122.308874,24.3798061 C122.536693,24.1044438 122.800108,23.7529945 123.099121,23.3254583 C123.398133,22.897922 123.704264,22.4486467 124.017515,21.9776322 C124.330766,21.5066177 124.644017,21.03198 124.957268,20.5537191 C125.270519,20.0754583 125.548173,19.6406757 125.79023,19.2493713 C126.046527,18.8435742 126.285024,18.5138641 126.505724,18.2602409 C126.726423,18.0066177 126.932884,17.8109655 127.125106,17.6732844 C127.317328,17.5356032 127.502431,17.4450235 127.680415,17.4015452 C127.858398,17.358067 128.032822,17.3363278 128.203686,17.3363278 C128.317595,17.3363278 128.4849,17.4450235 128.705599,17.6624148 C128.926299,17.8798061 129.143438,18.166038 129.357019,18.5211105 C129.570599,18.8761829 129.762821,19.2783568 129.933685,19.7276322 C130.104549,20.1769076 130.189981,20.6334293 130.189981,21.0971974 C130.189981,21.4885018 130.161504,21.8109655 130.104549,22.0645887 C130.047594,22.3182119 129.979961,22.5464728 129.901648,22.7493713 C129.823335,22.9522699 129.748582,23.147922 129.677389,23.3363278 C129.606195,23.5247336 129.55636,23.7493713 129.527883,24.0102409 C129.513644,24.1986467 129.488726,24.5428496 129.45313,25.0428496 C129.417533,25.5428496 129.378377,26.1189365 129.335661,26.7711105 C129.292945,27.4232844 129.246669,28.1116902 129.196833,28.8363278 C129.146998,29.5609655 129.104282,30.2385018 129.068685,30.8689365 C129.033089,31.4993713 129.001052,32.0428496 128.972574,32.4993713 C128.944097,32.9558931 128.929858,33.2348786 128.929858,33.3363278 L128.096896,33.3363278 L128.075538,26.8145887 C128.075538,26.3218351 128.082657,25.8653134 128.096896,25.4450235 C128.111134,25.0247336 128.100455,24.666038 128.064859,24.3689365 C128.029262,24.0718351 127.954509,23.839951 127.8406,23.6732844 C127.72669,23.5066177 127.548707,23.4232844 127.306649,23.4232844 L127.306649,23.4232844 Z" id="Shape" transform="translate(120.413301, 25.336328) rotate(2.000000) translate(-120.413301, -25.336328) "></path>
            </g>
        </g>
    </g>
</svg>