<?xml version="1.0" encoding="UTF-8"?>
<svg width="20px" height="20px" viewBox="0 0 20 20" version="1.1" xmlns="http://www.w3.org/2000/svg" xmlns:xlink="http://www.w3.org/1999/xlink">
    <!-- Generator: Sketch 47.1 (45422) - http://www.bohemiancoding.com/sketch -->
    <title>icon-loading</title>
    <desc>Created with Sketch.</desc>
    <defs></defs>
    <g id="用户端" stroke="none" stroke-width="1" fill="none" fill-rule="evenodd">
        <g id="主页" transform="translate(-138.000000, -1467.000000)" fill-rule="nonzero" fill="#000000">
            <g id="loading" transform="translate(0.000000, 1427.000000)">
                <path d="M157.214063,46.1074792 C156.710396,44.9166667 155.989375,43.84725 155.071062,42.9289375 C154.15275,42.010625 153.083333,41.2896042 151.892521,40.7859375 C150.659521,40.2644167 149.349896,40 148,40 C146.650104,40 145.340479,40.2644167 144.107479,40.7859375 C142.916667,41.2896042 141.84725,42.010625 140.928937,42.9289375 C140.010625,43.84725 139.289604,44.9166667 138.785937,46.1074792 C138.264417,47.3404792 138,48.6501042 138,50 C138,51.3498958 138.264417,52.6595208 138.785937,53.8925208 C139.272042,55.0417917 139.960646,56.0779583 140.833625,56.974375 C140.946812,56.7108125 141.148042,56.4941667 141.400292,56.3610833 C140.614563,55.5465833 139.993458,54.6078958 139.553625,53.568 C139.075667,52.4380417 138.833333,51.2375833 138.833333,50 C138.833333,48.7624167 139.075667,47.5619583 139.553604,46.4319792 C140.015292,45.3404375 140.676271,44.3601042 141.518167,43.5181875 C142.360083,42.6762708 143.340438,42.0152917 144.431958,41.5536042 C145.561979,41.0756667 146.762417,40.8333333 148,40.8333333 C149.237583,40.8333333 150.438021,41.0756667 151.568021,41.5536042 C152.659562,42.0152917 153.639896,42.6762708 154.481812,43.5181875 C155.323708,44.3601042 155.984708,45.3404375 156.446396,46.4319792 C156.924333,47.5619583 157.166667,48.7624167 157.166667,50 C157.166667,51.2375833 156.924333,52.4380417 156.446396,53.5680208 C155.984708,54.6595625 155.32375,55.6398958 154.481812,56.4818125 C153.639875,57.3237292 152.659542,57.9847083 151.568021,58.4463958 C150.438042,58.9243333 149.237583,59.1666667 148,59.1666667 C146.762417,59.1666667 145.561958,58.9243333 144.431979,58.4463958 C143.998646,58.2631042 143.583167,58.0478958 143.186583,57.8029583 C143.108792,58.0824375 142.936438,58.3223542 142.706021,58.4862292 C143.151417,58.7644375 143.619229,59.0075625 144.107479,59.2140833 C145.340479,59.7355833 146.650104,60 148,60 C149.349896,60 150.659521,59.7355833 151.892521,59.2140625 C153.083333,58.710375 154.15275,57.989375 155.071063,57.0710625 C155.989375,56.15275 156.710396,55.0833333 157.214063,53.8925208 C157.735583,52.6595208 158,51.3498958 158,50 C158,48.6501042 157.735583,47.3404792 157.214063,46.1074792 Z" id="icon-loading"></path>
            </g>
        </g>
    </g>
</svg>