<?xml version="1.0" encoding="UTF-8"?>
<svg width="14px" height="14px" viewBox="0 0 14 14" version="1.1" xmlns="http://www.w3.org/2000/svg" xmlns:xlink="http://www.w3.org/1999/xlink">
    <!-- Generator: Sketch 47.1 (45422) - http://www.bohemiancoding.com/sketch -->
    <title>Shape</title>
    <desc>Created with Sketch.</desc>
    <defs></defs>
    <g id="用户端" stroke="none" stroke-width="1" fill="none" fill-rule="evenodd">
        <g id="17-地址管理" transform="translate(-308.000000, -219.000000)" fill-rule="nonzero" fill="#666666">
            <g id="address-item" transform="translate(0.000000, 118.000000)">
                <g id="btn-delete" transform="translate(298.000000, 92.000000)">
                    <path d="M22.273848,13.5212634 L21.7769676,22.4170669 C21.7586935,22.7438513 21.4730263,23 21.1266828,23 L12.8733172,23 C12.5269737,23 12.2413065,22.7438513 12.2230324,22.4170669 L11.726152,13.5212634 C11.7072331,13.1818592 11.9829912,12.8921966 12.3421113,12.8742531 C12.7029112,12.8578008 13.0078197,13.1170443 13.0267386,13.4563684 L13.4910241,21.7692387 L20.5089929,21.7692387 L20.9732784,13.4563684 C20.99235,13.1169 21.3009235,12.8588591 21.6579057,12.8742531 C22.0170088,12.8922127 22.2927669,13.1818592 22.273848,13.5212634 Z M24,11.4615386 C24,11.8013919 23.708445,12.0769273 23.3488329,12.0769273 L10.6511671,12.0769273 C10.291555,12.0769273 10,11.8013919 10,11.4615386 C10,11.1216854 10.291555,10.84615 10.6511671,10.84615 L14.2325609,10.84615 L14.2325609,9.46154551 C14.2325609,9.16413785 14.4424167,9 14.7570985,9 L19.2427488,9 C19.5574476,9 19.7674391,9.16413785 19.7674391,9.46154551 L19.7674391,10.846166 L23.3488329,10.846166 C23.708445,10.846166 24,11.1217014 24,11.4615386 Z M15.3720907,10.846166 L18.6279094,10.846166 L18.6279093,10.0769342 L15.3720907,10.0769342 L15.3720907,10.846166 Z M15.645117,20.8461637 C15.6496643,20.8461637 15.6541777,20.8461637 15.6587929,20.8461637 C15.9734069,20.8461637 16.2223561,20.5601411 16.2149752,20.2628297 L16.0494049,13.6113661 C16.042007,13.3140226 15.7840141,13.0711191 15.4663629,13.0776615 C15.1517489,13.0846529 14.9027997,13.3272998 14.9101806,13.6246273 L15.0757508,20.2901539 C15.0830639,20.5831198 15.3366283,20.8461637 15.645117,20.8461637 Z M18.3299746,20.8461637 C18.6383954,20.8461637 18.8920446,20.5988986 18.8993577,20.3059327 L19.0649279,13.6633366 C19.0723258,13.3660092 18.8233596,13.1157134 18.5087456,13.108722 C18.189211,13.1043604 17.9330845,13.3352694 17.9257035,13.6325327 L17.7601333,20.2815109 C17.7527354,20.5788544 18.0017016,20.8461637 18.3163156,20.8461637 C18.3209308,20.8461637 18.3254612,20.8461637 18.3299746,20.8461637 Z" id="Shape"></path>
                </g>
            </g>
        </g>
    </g>
</svg>