<?xml version="1.0" encoding="UTF-8"?>
<svg width="28px" height="28px" viewBox="0 0 28 28" version="1.1" xmlns="http://www.w3.org/2000/svg" xmlns:xlink="http://www.w3.org/1999/xlink">
    <!-- Generator: Sketch 47.1 (45422) - http://www.bohemiancoding.com/sketch -->
    <title>icon-alipay</title>
    <desc>Created with Sketch.</desc>
    <defs></defs>
    <g id="用户端" stroke="none" stroke-width="1" fill="none" fill-rule="evenodd">
        <g id="03-支付订单" transform="translate(-15.000000, -687.000000)" fill-rule="nonzero" fill="#00A0E9">
            <g id="payment" transform="translate(0.000000, 576.000000)">
                <g id="alipay" transform="translate(15.000000, 100.000000)">
                    <g id="支付宝" transform="translate(0.000000, 11.000000)">
                        <path d="M6.30012173,15.7646696 C5.9696,16.0306696 5.61533913,16.4190174 5.51246957,16.9126696 C5.37246957,17.5871043 5.48325217,18.4313652 6.13394783,19.0936261 C6.9222087,19.8964957 8.12012173,20.1162348 8.63751304,20.1539739 C10.0429913,20.2556261 11.5409913,19.5586696 12.6701217,18.763713 C13.1126435,18.4514522 13.8704696,17.8244957 14.5948174,16.8572783 C12.9714261,16.0191043 10.9450783,15.0920609 8.77873043,15.1827565 C7.67212173,15.2290174 6.8796,15.4584957 6.30012173,15.7646696 Z M26.886087,19.4709565 C27.6025217,17.7891304 28,15.9405217 28,14 C28,6.28052173 21.720087,0 14,0 C6.27991304,0 0,6.28052173 0,14 C0,21.720087 6.27991304,28 14,28 C18.6589565,28 22.7907826,25.7106957 25.3375652,22.1997391 C22.9313913,21.0036522 18.9657391,19.0351304 16.5230435,17.843913 C15.3573913,19.1726957 13.6341739,20.5045217 11.6875652,21.084 C10.4646957,21.4473913 9.36234783,21.5861739 8.20947827,21.3506087 C7.0681739,21.1168696 6.22756523,20.5824348 5.73756523,20.0467826 C5.488,19.7734783 5.20130434,19.425913 4.99373913,19.0126087 C5.0132174,19.0649565 5.0266087,19.096 5.0266087,19.096 C5.0266087,19.096 4.90730434,18.8902609 4.816,18.5627826 C4.76913043,18.4045217 4.73747827,18.2395652 4.72469566,18.0666957 C4.71495653,17.9534783 4.71252173,17.8341739 4.7192174,17.71 C4.70886957,17.4993913 4.7173913,17.2784348 4.76486957,17.052 C4.87930434,16.4986957 5.11547827,15.854087 5.7266087,15.2557391 C7.0681739,13.9421739 8.86504347,13.8715652 9.79573913,13.8770435 C11.1744348,13.8849565 13.5702609,14.4881739 15.5874783,15.2015652 C16.1462609,14.0115652 16.5047826,12.7387826 16.736087,11.8902609 L8.34826087,11.8902609 L8.34826087,10.9833043 L12.6553913,10.9833043 L12.6553913,9.1693913 L7.44130434,9.1693913 L7.44130434,8.26243477 L12.6553913,8.26243477 L12.6553913,6.44913043 C12.6553913,6.2001739 12.7046957,5.99565217 13.1088696,5.99565217 L15.1492174,5.99565217 L15.1492174,8.26243477 L20.8173913,8.26243477 L20.8173913,9.1693913 L15.1492174,9.1693913 L15.1492174,10.9833043 L19.6833913,10.9833043 C19.6833913,10.9833043 19.228087,13.5215652 17.8043478,16.0233043 C20.964087,17.1518261 25.4093913,18.8902609 26.886087,19.4709565 Z" id="Shape"></path>
                    </g>
                </g>
            </g>
        </g>
    </g>
</svg>