<?xml version="1.0" encoding="UTF-8"?>
<svg width="18px" height="18px" viewBox="0 0 18 18" version="1.1" xmlns="http://www.w3.org/2000/svg" xmlns:xlink="http://www.w3.org/1999/xlink">
    <!-- Generator: Sketch 47.1 (45422) - http://www.bohemiancoding.com/sketch -->
    <title>ic_checked</title>
    <desc>Created with Sketch.</desc>
    <defs></defs>
    <g id="用户端" stroke="none" stroke-width="1" fill="none" fill-rule="evenodd">
        <g id="18-购物车" transform="translate(-15.000000, -172.000000)" fill="#020202">
            <g id="order-info" transform="translate(0.000000, 118.000000)">
                <g id="items" transform="translate(15.000000, 15.000000)">
                    <path d="M8.1492,52.0294343 C7.9248,52.2532418 7.5612,52.2532418 7.3368,52.0294343 C7.3278,52.020434 7.3314,52.0066336 7.3242,51.9976333 C7.3188,51.9922331 7.3116,51.9946332 7.3056,51.990433 L4.9734,49.6569552 C4.7298,49.4133471 4.7298,49.018534 4.9734,48.7737258 C5.217,48.5301177 5.6118,48.5301177 5.8566,48.7737258 L7.818,50.7363912 L13.4148,45.1382046 C13.6398,44.9131971 14.0034,44.9131971 14.2278,45.1382046 C14.4522,45.3620121 14.4522,45.7262242 14.2278,45.9506317 L8.1492,52.0294343 Z M9,57 C4.029,57 0,52.9708657 0,48.0003 C0,43.0297343 4.029,39 9,39 C13.9704,39 18,43.0297343 18,48.0003 C18,52.9708657 13.9704,57 9,57 L9,57 Z" id="ic_checked"></path>
                </g>
            </g>
        </g>
    </g>
</svg>