<?xml version="1.0" encoding="UTF-8"?>
<svg width="18px" height="18px" viewBox="0 0 18 18" version="1.1" xmlns="http://www.w3.org/2000/svg" xmlns:xlink="http://www.w3.org/1999/xlink">
    <!-- Generator: Sketch 47.1 (45422) - http://www.bohemiancoding.com/sketch -->
    <title>icon-service</title>
    <desc>Created with Sketch.</desc>
    <defs></defs>
    <g id="用户端" stroke="none" stroke-width="1" fill="none" fill-rule="evenodd">
        <g id="13-试穿详情" transform="translate(-309.000000, -77.000000)" fill-rule="nonzero" fill="#F0DFB4">
            <g id="control" transform="translate(0.000000, 64.000000)">
                <path d="M318.000024,13 C314.397677,13 311.361855,15.4993418 310.384617,18.91336 C309.510885,19.4401633 309,20.4548666 309,21.6425919 C309,23.3650512 310.048841,24.761728 311.769234,24.761728 C312.152078,24.761728 312.461531,24.4519034 312.461531,24.0686001 L312.461531,19.216608 C312.461531,18.8977648 312.235491,18.6475163 311.942291,18.566784 C312.95312,16.0826263 315.286527,14.3429519 318,14.3429519 C320.713473,14.3429519 323.04688,16.0826263 324.057709,18.566784 C323.764533,18.6475163 323.538469,18.8977648 323.538469,19.216608 L323.538469,24.0686001 C323.538469,24.4519034 323.847922,24.761728 324.230765,24.761728 C324.391843,24.761728 324.536089,24.7420224 324.685092,24.7183999 C324.461177,26.0117857 323.918656,26.9756172 323.365389,27.6425839 C323.020315,28.0585767 322.666451,28.3600355 322.391822,28.5523278 C322.254507,28.6484861 322.147694,28.7082073 322.0673,28.7472799 C322.02709,28.7668162 321.994223,28.7846358 321.980772,28.790608 L320.682706,28.790608 C320.433386,28.0668458 319.639951,27.5342879 318.692321,27.5342879 C317.545263,27.5342879 316.615383,28.3101067 316.615383,29.267144 C316.615383,30.2241813 317.545263,31 318.692321,31 C319.639951,31 320.433386,30.467418 320.682706,29.74368 L322.045686,29.74368 C322.279695,29.74368 322.3392,29.6813476 322.478374,29.61372 C322.617548,29.5460925 322.781065,29.4534643 322.954338,29.332136 C323.300861,29.0894796 323.719036,28.7356016 324.122599,28.249104 C324.852497,27.3692448 325.532163,26.062053 325.701935,24.306856 C326.51824,23.7644091 327,22.7877388 327,21.6426161 C327,20.4548666 326.489115,19.4401633 325.615383,18.9133842 C324.638218,15.4993418 321.602371,13 318.000024,13 Z" id="icon-service"></path>
            </g>
        </g>
    </g>
</svg>