<?xml version="1.0" encoding="UTF-8"?>
<svg width="48px" height="48px" viewBox="0 0 48 48" version="1.1" xmlns="http://www.w3.org/2000/svg" xmlns:xlink="http://www.w3.org/1999/xlink">
    <!-- Generator: Sketch 50.2 (55047) - http://www.bohemiancoding.com/sketch -->
    <title>Check - simple-line-icons</title>
    <desc>Created with Sketch.</desc>
    <defs></defs>
    <g id="匚向UI.ver1.1.iphoneX" stroke="none" stroke-width="1" fill="none" fill-rule="evenodd">
        <g id="07-还鞋成功" transform="translate(-164.000000, -108.000000)" fill="#1AAD19">
            <g id="归还成功" transform="translate(0.000000, 88.000000)">
                <path d="M188,20 C191.312517,20 194.429673,20.6249938 197.351562,21.875 C200.273452,23.1250062 202.820302,24.8359266 204.992188,27.0078125 C207.164073,29.1796984 208.874994,31.7265479 210.125,34.6484375 C211.375006,37.5703271 212,40.6874834 212,44 C212,47.3125166 211.375006,50.4296729 210.125,53.3515625 C208.874994,56.2734521 207.164073,58.8203016 204.992188,60.9921875 C202.820302,63.1640734 200.273452,64.8749938 197.351562,66.125 C194.429673,67.3750062 191.312517,68 188,68 C184.687483,68 181.570327,67.3750062 178.648438,66.125 C175.726548,64.8749938 173.179698,63.1640734 171.007812,60.9921875 C168.835927,58.8203016 167.125006,56.2734521 165.875,53.3515625 C164.624994,50.4296729 164,47.3125166 164,44 C164,40.6874834 164.624994,37.5703271 165.875,34.6484375 C167.125006,31.7265479 168.835927,29.1796984 171.007812,27.0078125 C173.179698,24.8359266 175.726548,23.1250062 178.648438,21.875 C181.570327,20.6249938 184.687483,20 188,20 Z M188,65.046875 C190.906265,65.046875 193.6328,64.492193 196.179688,63.3828125 C198.726575,62.273432 200.945303,60.7656345 202.835938,58.859375 C204.726572,56.9531155 206.226557,54.7265752 207.335938,52.1796875 C208.445318,49.6327998 209,46.9062645 209,44 C209,41.0937355 208.445318,38.3672002 207.335938,35.8203125 C206.226557,33.2734248 204.726572,31.054697 202.835938,29.1640625 C200.945303,27.273428 198.726575,25.773443 196.179688,24.6640625 C193.6328,23.554682 190.906265,23 188,23 C185.093735,23 182.3672,23.554682 179.820312,24.6640625 C177.273425,25.773443 175.054697,27.273428 173.164062,29.1640625 C171.273428,31.054697 169.773443,33.2734248 168.664062,35.8203125 C167.554682,38.3672002 167,41.0937355 167,44 C167,46.9062645 167.554682,49.6327998 168.664062,52.1796875 C169.773443,54.7265752 171.273428,56.9531155 173.164062,58.859375 C175.054697,60.7656345 177.273425,62.273432 179.820312,63.3828125 C182.3672,64.492193 185.093735,65.046875 188,65.046875 Z M197.5625,35.234375 C197.875002,34.9218734 198.234373,34.765625 198.640625,34.765625 C199.046877,34.765625 199.406248,34.9218734 199.71875,35.234375 C200.000001,35.5156264 200.140625,35.8671854 200.140625,36.2890625 C200.140625,36.7109396 200.000001,37.0624986 199.71875,37.34375 L184.765625,52.390625 C184.734375,52.4218752 184.703125,52.4531248 184.671875,52.484375 C184.640625,52.5156252 184.609375,52.5468748 184.578125,52.578125 C184.296874,52.8906266 183.945315,53.046875 183.523438,53.046875 C183.10156,53.046875 182.750001,52.8906266 182.46875,52.578125 L175.015625,45.171875 C174.734374,44.8906236 174.59375,44.5390646 174.59375,44.1171875 C174.59375,43.6953104 174.734374,43.3437514 175.015625,43.0625 C175.328127,42.7499984 175.687498,42.59375 176.09375,42.59375 C176.500002,42.59375 176.859373,42.7499984 177.171875,43.0625 L183.5,49.390625 L197.5625,35.234375 Z" id="Check---simple-line-icons"></path>
            </g>
        </g>
    </g>
</svg>