<?xml version="1.0" encoding="UTF-8"?>
<svg width="5px" height="10px" viewBox="0 0 5 10" version="1.1" xmlns="http://www.w3.org/2000/svg" xmlns:xlink="http://www.w3.org/1999/xlink">
    <!-- Generator: Sketch 50.2 (55047) - http://www.bohemiancoding.com/sketch -->
    <title>Arrow-right - simple-line-icons</title>
    <desc>Created with Sketch.</desc>
    <defs></defs>
    <g id="匚向UI.ver1.1.iphoneX" stroke="none" stroke-width="1" fill="none" fill-rule="evenodd">
        <g id="01-主页" transform="translate(-360.000000, -417.000000)" fill="#F1E2BB">
            <g id="history" transform="translate(0.000000, 397.000000)">
                <g id="按钮-确认收货" transform="translate(289.000000, 6.000000)">
                    <path d="M71.290625,23.3314887 C71.2496092,23.3314887 71.2100588,23.3241646 71.1719727,23.3095161 C71.1338865,23.2948675 71.1001955,23.2728951 71.0708984,23.2435981 C71.0123044,23.185004 70.9830078,23.1146923 70.9830078,23.0326606 C70.9830078,22.9506289 71.0123044,22.8803171 71.0708984,22.8217231 L75.0875,18.8051215 L71.1324219,14.8588325 C71.0738278,14.8002384 71.0445313,14.7284618 71.0445313,14.6435004 C71.0445313,14.5585391 71.0738278,14.4867624 71.1324219,14.4281684 C71.1910159,14.3695744 71.2627925,14.3402778 71.3477539,14.3402778 C71.4327153,14.3402778 71.5044919,14.3695744 71.5630859,14.4281684 L75.7203125,18.594184 C75.7789065,18.6527781 75.8082031,18.7230899 75.8082031,18.8051215 C75.8082031,18.8871532 75.7789065,18.957465 75.7203125,19.016059 L71.5015625,23.2435981 C71.4722655,23.2728951 71.4385744,23.2948675 71.4004883,23.3095161 C71.3624022,23.3241646 71.3257814,23.3314887 71.290625,23.3314887 Z" id="Arrow-right---simple-line-icons"></path>
                </g>
            </g>
        </g>
    </g>
</svg>