<?xml version="1.0" encoding="UTF-8"?>
<svg width="20px" height="18px" viewBox="0 0 20 18" version="1.1" xmlns="http://www.w3.org/2000/svg" xmlns:xlink="http://www.w3.org/1999/xlink">
    <!-- Generator: Sketch 50.2 (55047) - http://www.bohemiancoding.com/sketch -->
    <title>icon-scan</title>
    <desc>Created with Sketch.</desc>
    <defs></defs>
    <g id="匚向UI.ver1.1.iphoneX" stroke="none" stroke-width="1" fill="none" fill-rule="evenodd" opacity="0.85">
        <g id="01-主页" transform="translate(-178.000000, -346.000000)" fill="#F0DFB4" fill-rule="nonzero">
            <g id="btn-scan" transform="translate(15.000000, 333.000000)">
                <g id="icon-scan" transform="translate(161.000000, 10.000000)">
                    <path d="M19.7926421,8.99999999 L21.3311037,8.99999999 L21.3311037,3.76595745 C21.3311037,3.38297872 20.9966555,3.06382978 20.5953177,3.06382978 L15.1772575,3.06382978 L15.1772575,4.59574467 L19.7926421,4.59574467 L19.7926421,8.99999999 Z M4.27424748,4.53191489 L8.8896321,4.53191489 L8.8896321,3 L3.4715719,3 C3.07023411,3 2.73578594,3.31914894 2.73578596,3.70212767 L2.73578596,8.93617021 L4.27424748,8.93617021 L4.27424748,4.53191489 Z M4.27424748,15 L2.73578596,15 L2.73578596,20.2340426 C2.73578596,20.6170213 3.07023413,20.9361702 3.4715719,20.9361702 L8.8896321,20.9361702 L8.8896321,19.4042553 L4.34113713,19.4042553 L4.27424748,15 Z M19.7926421,19.4680851 L15.1772575,19.4680851 L15.1772575,21 L20.5953177,21 C20.9966555,21 21.3311037,20.6808511 21.3311037,20.2978723 L21.3311037,15.0638298 L19.7926421,15.0638298 L19.7926421,19.4680851 Z M21.3311037,11.2978723 L2.73578596,11.2978723 C2.33444817,11.2978723 2,11.6170213 2,12 C2,12.3829787 2.33444817,12.7021277 2.73578596,12.7021277 L21.264214,12.7021277 C21.6655518,12.7021277 22,12.3829787 22,12 C22,11.6170213 21.7324415,11.2978723 21.3311037,11.2978723 Z"></path>
                </g>
            </g>
        </g>
    </g>
</svg>