<?xml version="1.0" encoding="UTF-8"?>
<svg width="12px" height="8px" viewBox="0 0 12 8" version="1.1" xmlns="http://www.w3.org/2000/svg" xmlns:xlink="http://www.w3.org/1999/xlink">
    <!-- Generator: Sketch 50.2 (55047) - http://www.bohemiancoding.com/sketch -->
    <title>Check - simple-line-icons</title>
    <desc>Created with Sketch.</desc>
    <defs></defs>
    <g id="匚向UI.ver1.1.iphoneX" stroke="none" stroke-width="1" fill="none" fill-rule="evenodd">
        <g id="07-还鞋成功" transform="translate(-299.000000, -311.000000)" fill="#999999">
            <g id="trying1" transform="translate(0.000000, 208.000000)">
                <g id="已归还" transform="translate(290.000000, 96.000000)">
                    <path d="M19.0512821,7.20512821 C19.1880349,7.06837538 19.3452983,7 19.5230769,7 C19.7008556,7 19.858119,7.06837538 19.9948718,7.20512821 C20.1179493,7.32820574 20.1794872,7.48205036 20.1794872,7.66666667 C20.1794872,7.85128297 20.1179493,8.00512759 19.9948718,8.12820513 L13.4512821,14.7128205 C13.4376068,14.7264958 13.4239317,14.7401709 13.4102564,14.7538462 C13.3965811,14.7675214 13.3829061,14.7811965 13.3692308,14.7948718 C13.2461532,14.9316246 13.0923086,15 12.9076923,15 C12.723076,15 12.5692314,14.9316246 12.4461538,14.7948718 L9.18461538,11.5538462 C9.06153785,11.4307686 9,11.276924 9,11.0923077 C9,10.9076914 9.06153785,10.7538468 9.18461538,10.6307692 C9.32136821,10.4940164 9.47863159,10.425641 9.65641026,10.425641 C9.83418892,10.425641 9.99145231,10.4940164 10.1282051,10.6307692 L12.8974359,13.4 L19.0512821,7.20512821 Z" id="Check---simple-line-icons"></path>
                </g>
            </g>
        </g>
    </g>
</svg>