<?xml version="1.0" encoding="UTF-8"?>
<svg width="60px" height="60px" viewBox="0 0 60 60" version="1.1" xmlns="http://www.w3.org/2000/svg" xmlns:xlink="http://www.w3.org/1999/xlink">
    <!-- Generator: Sketch 50.2 (55047) - http://www.bohemiancoding.com/sketch -->
    <title>icon-location-absent</title>
    <desc>Created with Sketch.</desc>
    <defs>
        <linearGradient x1="0%" y1="100%" x2="100%" y2="0%" id="linearGradient-1">
            <stop stop-color="#050505" offset="0%"></stop>
            <stop stop-color="#444444" offset="100%"></stop>
        </linearGradient>
        <linearGradient x1="1.11022302e-14%" y1="100%" x2="100%" y2="3.74939946e-31%" id="linearGradient-2">
            <stop stop-color="#DFC988" offset="3.40046965%"></stop>
            <stop stop-color="#FFEFC7" offset="98.3155708%"></stop>
        </linearGradient>
    </defs>
    <g id="匚向UI.ver1.1.iphoneX" stroke="none" stroke-width="1" fill="none" fill-rule="evenodd">
        <g id="09-购买说明-在鞋柜附近" transform="translate(-158.000000, -629.000000)">
            <g id="icon-location-absent" transform="translate(158.000000, 629.000000)">
                <rect id="Rectangle-2" fill="url(#linearGradient-1)" x="0" y="0" width="60" height="60" rx="30"></rect>
                <path d="M34.3665403,16.9771217 C34.3665403,15.3329028 35.7004979,14 37.3460181,14 C38.9915382,14 40.3254959,15.3329028 40.3254959,16.9771217 C40.3254959,18.6213405 38.9915382,19.9542433 37.3460181,19.9542433 C35.7004979,19.9542433 34.3665403,18.6213405 34.3665403,16.9771217 Z M23.0449304,25.4222042 L23.0449304,25.4222697 L21.6532334,24.7232796 C22.435932,22.8187935 23.5746706,21.3430606 25.0693836,20.2960154 C27.3114531,18.7255131 32.6786887,19.1001403 34.0367452,19.9071858 C35.3946709,20.7141659 36.2705682,21.5585171 37.5220746,23.719365 C38.6555118,25.6764062 38.2778085,27.6077262 39.7674819,28.3520721 C40.760663,28.8482372 42.5308487,28.7765711 45.0779737,28.1371392 L45.8228432,29.6257 C42.6058527,31.2853432 40.2524553,31.8670495 38.7627164,31.370819 C37.273043,30.8746538 36.0860689,29.4372737 35.2018596,27.058875 L32.377102,30.6222844 C36.7292313,32.864223 38.6569517,35.4737204 38.1603938,38.4509075 C37.6637706,41.4280291 36.7419284,43.9443933 35.3946709,46 L32.8332127,46 C33.9805904,43.4383455 34.6786642,41.1719946 34.9273685,39.2008165 C35.300425,36.2440493 30.9255196,34.8357283 29.4357152,34.0914479 C27.5752106,35.4193327 25.5352461,37.0632683 21.7756221,36.4477905 C19.5123473,36.0772211 17.2537848,34.5365632 15,31.8256861 L16.028196,30.3699804 C17.5178695,32.3547718 19.25592,33.3471675 21.2422167,33.3471675 C24.2216945,33.3471675 25.1312324,32.3987532 26.9317863,30.3699804 C28.1322428,29.017487 29.4445508,26.4336454 30.8687103,22.6184557 L26.8124737,22.6184557 C25.8192926,22.6184557 24.5634666,23.5529949 23.0449304,25.4222042 Z" id="Combined-Shape" fill="url(#linearGradient-2)" fill-rule="nonzero"></path>
            </g>
        </g>
    </g>
</svg>