<?xml version="1.0" encoding="UTF-8"?>
<svg width="14px" height="14px" viewBox="0 0 14 14" version="1.1" xmlns="http://www.w3.org/2000/svg" xmlns:xlink="http://www.w3.org/1999/xlink">
    <!-- Generator: Sketch 47.1 (45422) - http://www.bohemiancoding.com/sketch -->
    <title>Shape</title>
    <desc>Created with Sketch.</desc>
    <defs></defs>
    <g id="用户端" stroke="none" stroke-width="1" fill="none" fill-rule="evenodd">
        <g id="17-地址管理" transform="translate(-236.000000, -219.000000)" fill-rule="nonzero" fill="#666666">
            <g id="address-item" transform="translate(0.000000, 118.000000)">
                <g id="btn-delete-copy" transform="translate(226.000000, 92.000000)">
                    <path d="M19.2829742,9.51851853 L12.0773285,9.51851853 C10.9268121,9.51851853 10,10.4483946 10,11.5954549 L10,20.9230636 C10,22.0733632 10.9300517,23 12.0773285,23 L21.4067005,23 C22.5572179,23 23.484029,22.0701239 23.484029,20.9230636 L23.484029,13.8244896 L22.446796,14.8615266 L22.446796,20.9230636 C22.446796,21.4987542 21.9830004,21.962963 21.4067005,21.962963 L12.0773285,21.962963 C11.5015297,21.962963 11.037233,21.4992543 11.037233,20.9230636 L11.037233,11.5954549 C11.037233,11.0197643 11.5010296,10.5555556 12.0773285,10.5555556 L18.2457412,10.5555556 L19.2829742,9.51851853 Z M14.3851186,18.5546573 L17.5315622,17.6615162 L15.2841315,15.4282502 L14.3851186,18.5546573 Z M22.7888537,12.4372819 L20.541395,10.2039868 L15.5969256,15.1170966 L17.8443563,17.3501741 L22.7888537,12.4372819 Z M23.8334021,10.5613071 L22.4286796,9.16558473 C22.1959456,8.93428702 21.8060669,8.94688063 21.557805,9.19348492 L20.8834586,9.86333713 L23.1309323,12.0966176 L23.8052357,11.4265624 C24.0534976,11.1799435 24.066093,10.7926338 23.8334021,10.5613071 Z" id="Shape"></path>
                </g>
            </g>
        </g>
    </g>
</svg>