<?xml version="1.0" encoding="UTF-8"?>
<svg width="28px" height="28px" viewBox="0 0 28 28" version="1.1" xmlns="http://www.w3.org/2000/svg" xmlns:xlink="http://www.w3.org/1999/xlink">
    <!-- Generator: Sketch 47.1 (45422) - http://www.bohemiancoding.com/sketch -->
    <title>icon-wxpay</title>
    <desc>Created with Sketch.</desc>
    <defs></defs>
    <g id="用户端" stroke="none" stroke-width="1" fill="none" fill-rule="evenodd">
        <g id="03-支付订单" transform="translate(-15.000000, -637.000000)" fill-rule="nonzero" fill="#1AAD19">
            <g id="payment" transform="translate(0.000000, 576.000000)">
                <g id="wx-pay" transform="translate(15.000000, 50.000000)">
                    <g id="微信" transform="translate(0.000000, 14.000000)">
                        <path d="M28,14.8481409 C28,10.9683841 24.1290488,7.80904523 19.7743742,7.80904523 C15.160666,7.80904523 11.5376884,10.9683841 11.5376884,14.8481409 C11.5376884,18.7378144 15.160666,21.8860699 19.7743742,21.8860699 C20.7394925,21.8860699 21.7156708,21.6393195 22.680207,21.4036524 L25.3392304,22.8643216 L24.611608,20.436484 C26.5517404,18.9752314 28,17.0303947 28,14.8481409 Z M17.1025447,13.6336388 C16.6211497,13.6336388 16.1385905,13.1506379 16.1385905,12.6658871 C16.1385905,12.1840529 16.6211497,11.6998854 17.1025447,11.6998854 C17.8324955,11.6998854 18.3156368,12.1840529 18.3156368,12.6658871 C18.3156367,13.1506379 17.8324955,13.6336388 17.1025447,13.6336388 Z M22.4339796,13.6336388 C21.9520025,13.6336388 21.4706075,13.1506379 21.4706075,12.6658871 C21.4706075,12.1840529 21.9520025,11.6998854 22.4339796,11.6998854 C23.1627662,11.6998854 23.6459075,12.1840529 23.6459075,12.6658871 C23.6459075,13.1506379 23.1511242,13.6336388 22.4339796,13.6336388 Z" id="Shape"></path>
                        <path d="M18.9552521,6.89248712 C19.2731562,6.89248712 19.5922269,6.9146195 19.9095477,6.94723561 C19.0544148,2.95758405 14.7857499,0 9.91102558,0 C4.46699042,3.87976908e-16 0,3.70367801 0,8.41554387 C0,11.1337488 1.48219152,13.3685361 3.96242698,15.1006856 L2.97488262,18.080402 L6.44266246,16.3389337 C7.68278021,16.5794776 8.68140745,16.8322526 9.91102561,16.8322526 C10.2178468,16.8322526 10.526418,16.8211864 10.8338225,16.7897352 C10.6360803,16.1310058 10.526418,15.4315063 10.526418,14.7180285 C10.5258347,10.3993035 14.2473545,6.89248712 18.9552521,6.89248712 Z M13.6202959,4.20748072 C14.3663498,4.20748072 14.8598303,4.70079967 14.8598303,5.44631122 C14.8598303,6.19065789 14.3657665,6.68397684 13.6202959,6.68397684 C12.8736587,6.68397684 12.1281881,6.19065789 12.1281881,5.44631122 C12.139271,4.70021725 12.8841583,4.20748072 13.6202959,4.20748072 Z M6.68415293,6.682812 C5.93751572,6.682812 5.19204513,6.19007547 5.19204513,5.44514637 C5.19204513,4.69963483 5.93809902,4.2068983 6.68415293,4.2068983 C7.43137345,4.2068983 7.92543728,4.70021725 7.92543728,5.44514637 C7.92485398,6.17959171 7.43137345,6.682812 6.68415293,6.682812 Z" id="Shape"></path>
                    </g>
                </g>
            </g>
        </g>
    </g>
</svg>