<?xml version="1.0" encoding="UTF-8"?>
<svg width="60px" height="60px" viewBox="0 0 60 60" version="1.1" xmlns="http://www.w3.org/2000/svg" xmlns:xlink="http://www.w3.org/1999/xlink">
    <!-- Generator: Sketch 50.2 (55047) - http://www.bohemiancoding.com/sketch -->
    <title>icon-location-beside</title>
    <desc>Created with Sketch.</desc>
    <defs>
        <linearGradient x1="0%" y1="100%" x2="100%" y2="0%" id="linearGradient-1">
            <stop stop-color="#050505" offset="0%"></stop>
            <stop stop-color="#444444" offset="100%"></stop>
        </linearGradient>
        <linearGradient x1="1.11022302e-14%" y1="100%" x2="100%" y2="3.74939946e-31%" id="linearGradient-2">
            <stop stop-color="#DFC988" offset="3.40046965%"></stop>
            <stop stop-color="#FFEFC7" offset="98.3155708%"></stop>
        </linearGradient>
    </defs>
    <g id="匚向UI.ver1.1.iphoneX" stroke="none" stroke-width="1" fill="none" fill-rule="evenodd">
        <g id="09-购买说明-在鞋柜附近" transform="translate(-158.000000, -98.000000)">
            <g id="icon-location-beside" transform="translate(158.000000, 98.000000)">
                <rect id="Rectangle-2" fill="url(#linearGradient-1)" x="0" y="0" width="60" height="60" rx="30"></rect>
                <path d="M30.125,14 C32.0000094,14 33.6770759,14.3229134 35.15625,14.96875 C36.6354241,15.6145866 37.8802033,16.4947861 38.890625,17.609375 C39.9010467,18.7239639 40.6718723,20.0208259 41.203125,21.5 C41.7343777,22.9791741 42,24.5416584 42,26.1875 C42,27.854175 41.6718783,29.557283 41.015625,31.296875 C40.3593717,33.036467 39.531255,34.7447833 38.53125,36.421875 C37.531245,38.0989667 36.4479225,39.6874925 35.28125,41.1875 C34.1145775,42.6875075 33.0208384,44.0208275 32,45.1875 C32,45.2083334 31.8437516,45.348957 31.53125,45.609375 C31.2187484,45.869793 30.8541687,46 30.4375,46 L30.34375,46 C29.9062478,46 29.5364598,45.869793 29.234375,45.609375 C28.9322902,45.348957 28.78125,45.2083334 28.78125,45.1875 C27.6979113,43.9374938 26.526048,42.5729241 25.265625,41.09375 C24.005202,39.6145759 22.838547,38.0572998 21.765625,36.421875 C20.692703,34.7864502 19.7968786,33.1041753 19.078125,31.375 C18.3593714,29.6458247 18,27.9166753 18,26.1875 C18,24.5416584 18.3229134,22.9791741 18.96875,21.5 C19.6145866,20.0208259 20.4895778,18.7239639 21.59375,17.609375 C22.6979222,16.4947861 23.9843677,15.6145866 25.453125,14.96875 C26.9218823,14.3229134 28.4791584,14 30.125,14 Z M30.03125,20.03125 C31.697925,20.03125 33.1145775,20.6197858 34.28125,21.796875 C35.4479225,22.9739642 36.03125,24.3854084 36.03125,26.03125 C36.03125,27.697925 35.4479225,29.1145775 34.28125,30.28125 C33.1145775,31.4479225 31.697925,32.03125 30.03125,32.03125 C28.3854084,32.03125 26.9739642,31.4479225 25.796875,30.28125 C24.6197858,29.1145775 24.03125,27.697925 24.03125,26.03125 C24.03125,24.3854084 24.6197858,22.9739642 25.796875,21.796875 C26.9739642,20.6197858 28.3854084,20.03125 30.03125,20.03125 Z" id="Location-pin---simple-line-icons" fill="url(#linearGradient-2)"></path>
            </g>
        </g>
    </g>
</svg>