<?xml version="1.0" encoding="UTF-8"?>
<svg width="18px" height="18px" viewBox="0 0 18 18" version="1.1" xmlns="http://www.w3.org/2000/svg" xmlns:xlink="http://www.w3.org/1999/xlink">
    <!-- Generator: Sketch 47.1 (45422) - http://www.bohemiancoding.com/sketch -->
    <title>icon-counting</title>
    <desc>Created with Sketch.</desc>
    <defs></defs>
    <g id="用户端" stroke="none" stroke-width="1" fill="none" fill-rule="evenodd">
        <g id="13-试穿详情" transform="translate(-15.000000, -77.000000)" fill-rule="nonzero" fill="#F0DFB4">
            <g id="control" transform="translate(0.000000, 64.000000)">
                <path d="M23.5520127,23.5439934 C23.1942984,23.5439934 22.9048312,23.2542165 22.9048312,22.8968325 C22.9048312,22.8967705 22.9048312,22.8967292 22.9048312,22.8966673 C22.9048312,22.8966054 22.9048312,22.896564 22.9048312,22.8965021 L22.9048312,18.596971 C22.9048312,18.2395664 23.1942984,17.9497895 23.5520127,17.9497895 C23.9097271,17.9497895 24.1991942,18.2395664 24.1991942,18.596971 L24.1991942,22.2496303 L27.7213683,22.2496303 C28.0790827,22.2496303 28.3685498,22.5394072 28.3685498,22.8968118 C28.3685498,23.2542165 28.0790826,23.5439934 27.7213683,23.5439934 L23.5520127,23.5439934 Z M29.5396343,14.9082573 C33.4498571,17.9624271 34.1463293,23.6280582 31.0918292,27.538281 C29.6123212,29.4324139 27.4837112,30.6370128 25.0978888,30.9302588 C24.7250176,30.9763902 24.3527659,30.998506 23.9830335,30.998506 C21.9865195,30.998506 20.0595329,30.3386869 18.4618262,29.0904759 C15.796655,27.0092775 14.5307472,23.650174 15.1583322,20.3242338 C15.2240601,19.973148 15.5659774,19.7443703 15.9142136,19.8081984 C16.2656091,19.8745458 16.4963073,20.212994 16.4299393,20.5643896 C15.8927173,23.4122278 16.9766188,26.2881702 19.2581397,28.0704438 C22.6071455,30.6863242 27.4565362,30.0897137 30.0717765,26.7419675 C32.6863972,23.3939115 32.0904063,18.5429308 28.7433002,15.9283307 C27.1215572,14.661473 25.1060868,14.1034155 23.0609222,14.3530495 C21.0189169,14.6039637 19.1962113,15.6353944 17.9296633,17.2571167 C17.7097236,17.5377252 17.303338,17.588606 17.0214699,17.3686663 C16.7396018,17.1487266 16.6896709,16.7420312 16.9096106,16.4601631 C18.3891393,14.5660302 20.5177493,13.3614313 22.9029315,13.068495 C25.2887744,12.7755587 27.645522,13.4284189 29.5396343,14.9082573 Z" id="icon-counting"></path>
            </g>
        </g>
    </g>
</svg>