<?xml version="1.0" encoding="UTF-8"?>
<svg width="12px" height="12px" viewBox="0 0 12 12" version="1.1" xmlns="http://www.w3.org/2000/svg" xmlns:xlink="http://www.w3.org/1999/xlink">
    <!-- Generator: Sketch 50.2 (55047) - http://www.bohemiancoding.com/sketch -->
    <title>Phone - simple-line-icons</title>
    <desc>Created with Sketch.</desc>
    <defs></defs>
    <g id="匚向UI.ver1.1.iphoneX" stroke="none" stroke-width="1" fill="none" fill-rule="evenodd">
        <g id="04-试鞋中-1双" transform="translate(-51.000000, -723.000000)" fill="#020202">
            <g id="help" transform="translate(15.000000, 571.000000)">
                <g id="正在试穿" transform="translate(25.000000, 147.000000)">
                    <path d="M13.9662379,5.27822581 C14.1913194,5.59274351 14.4385035,5.95161089 14.7077974,6.35483871 C14.9770914,6.75806653 15.2684872,7.2056427 15.5819936,7.69758065 C15.6623798,7.82661355 15.6965435,7.97177339 15.6844855,8.13306452 C15.6724276,8.29435565 15.6141484,8.46774101 15.5096463,8.65322581 C15.4694532,8.73387137 15.4011259,8.86290234 15.3046624,9.04032258 C15.2081989,9.21774282 15.083602,9.44757923 14.9308682,9.72983871 C15.0996793,9.9717754 15.3147093,10.241934 15.5759646,10.5403226 C15.8372199,10.8387112 16.1406735,11.1612886 16.4863344,11.5080645 C16.8400339,11.862905 17.1635837,12.1713697 17.4569936,12.4334677 C17.7504034,12.6955658 18.0136644,12.9112895 18.2467845,13.0806452 C18.5200978,12.919354 18.7471856,12.788307 18.9280546,12.6875 C19.1089237,12.586693 19.2395494,12.5161292 19.3199357,12.4758065 C19.4163992,12.4193546 19.5148709,12.3770163 19.6153537,12.3487903 C19.7158365,12.3205644 19.8102889,12.3064516 19.8987138,12.3064516 C19.9710614,12.3064516 20.0373791,12.314516 20.0976688,12.3306452 C20.1579585,12.3467743 20.2162376,12.3709676 20.272508,12.4032258 C20.6342462,12.6209688 21.0160751,12.864918 21.4180064,13.1350806 C21.8199377,13.4052433 22.2499977,13.7016113 22.7081993,14.0241935 C22.7885856,14.0806454 22.8528936,14.1532254 22.9011254,14.2419355 C22.9493571,14.3306456 22.9815111,14.4274188 22.9975884,14.5322581 C23.005627,14.6451619 22.9935693,14.7600801 22.9614148,14.8770161 C22.9292603,14.9939522 22.8729907,15.1129026 22.7926045,15.233871 C22.76045,15.2903229 22.7122189,15.3588706 22.6479099,15.4395161 C22.5836009,15.5201617 22.5072351,15.6129027 22.4188103,15.7177419 C22.338424,15.8225812 22.2339234,15.9415316 22.1053054,16.0745968 C21.9766874,16.207662 21.8239558,16.3548379 21.6471061,16.516129 C21.4782949,16.6774202 21.3235537,16.7983867 21.1828778,16.8790323 C21.0422018,16.9596778 20.9196146,17 20.8151125,17 L20.7909968,17 C20.3729882,16.9838709 19.9348897,16.893146 19.4766881,16.7278226 C19.0184864,16.5624992 18.5361761,16.3266144 18.0297427,16.0201613 C17.5233093,15.7137081 16.992768,15.3306475 16.4381029,14.8709677 C15.8834377,14.411288 15.3046654,13.8830675 14.7017685,13.2862903 C14.0988716,12.6814486 13.5703399,12.1008092 13.1161576,11.5443548 C12.6619752,10.9879004 12.2801462,10.4556477 11.9706592,9.94758065 C11.6611721,9.43951359 11.4260458,8.95363135 11.2652733,8.48991935 C11.1045008,8.02620736 11.0160773,7.58871173 11,7.17741935 C11,7.06451556 11.0401925,6.93750071 11.1205788,6.79637097 C11.200965,6.65524123 11.3215426,6.49596863 11.4823151,6.31854839 C11.6430876,6.14112815 11.7877807,5.98991998 11.9163987,5.86491935 C12.0450167,5.73991873 12.161575,5.63709718 12.2660772,5.55645161 C12.3625407,5.4838706 12.4549835,5.4153229 12.5434084,5.35080645 C12.6318332,5.28629 12.708199,5.22983895 12.772508,5.18145161 C12.8609329,5.11693516 12.9533757,5.07056466 13.0498392,5.04233871 C13.1463027,5.01411276 13.2508033,5 13.363344,5 C13.4919621,5 13.6065107,5.0221772 13.7069936,5.06653226 C13.8074764,5.11088732 13.8938903,5.18145113 13.9662379,5.27822581 Z" id="Phone---simple-line-icons"></path>
                </g>
            </g>
        </g>
    </g>
</svg>