<?xml version="1.0" encoding="UTF-8"?>
<svg width="22px" height="17px" viewBox="0 0 22 17" version="1.1" xmlns="http://www.w3.org/2000/svg" xmlns:xlink="http://www.w3.org/1999/xlink">
    <!-- Generator: Sketch 50.2 (55047) - http://www.bohemiancoding.com/sketch -->
    <title>Shape</title>
    <desc>Created with Sketch.</desc>
    <defs></defs>
    <g id="匚向UI.ver1.1.iphoneX" stroke="none" stroke-width="1" fill="none" fill-rule="evenodd">
        <g id="02-选择鞋码" transform="translate(-129.000000, -370.000000)" fill="#F1E2BB" fill-rule="nonzero">
            <g id="btn-scan" transform="translate(15.000000, 356.000000)">
                <g transform="translate(113.000000, 10.000000)" id="Shape">
                    <path d="M17.9803591,10.3695652 C17.659953,10.5144928 17.31406,10.7318841 16.9426801,11.0217391 C16.5713002,11.3115942 16.2035614,11.7101449 15.8394634,12.2173913 C15.5044934,12.7101449 15.1840872,13.1811594 14.878245,13.6304348 C14.5724027,14.0797101 14.2774834,14.5326087 13.9934871,14.9891304 C13.7094907,15.4456522 13.4254943,15.9130435 13.141498,16.3913043 C12.8575016,16.8695652 12.5698643,17.384058 12.2785859,17.9347826 C11.8999241,18.6304348 11.40111,19.1376812 10.7821435,19.4565217 C10.1631771,19.7753623 9.42405836,19.942029 8.56478731,19.9565217 C8.04048633,19.9565217 7.51982632,19.9130435 7.0028073,19.826087 C6.48578827,19.7391304 5.99061512,19.6086957 5.51728784,19.4347826 C5.04396057,19.2608696 4.6034021,19.0507246 4.19561245,18.8043478 C3.7878228,18.557971 3.43828881,18.2753623 3.14701048,17.9565217 C2.37512293,17.115942 1.99282013,16.365942 2.00010208,15.7065217 C2.00738404,15.0471014 2.3969688,14.5507246 3.16885636,14.2173913 C3.51839035,14.057971 3.87884727,13.9311594 4.25022714,13.8369565 C4.621607,13.7427536 4.96021805,13.6666667 5.26606029,13.6086957 C5.6301582,13.5507246 5.97969218,13.5072464 6.31466226,13.4782609 C6.51855708,13.7246377 6.78070757,13.9275362 7.10111373,14.0869565 C7.37782814,14.2318841 7.72372115,14.3442029 8.13879276,14.423913 C8.55386437,14.5036232 9.05996046,14.4927536 9.65708102,14.3913043 C10.1376903,14.3188406 10.5636848,14.1847826 10.9350647,13.9891304 C11.3064445,13.7934783 11.6559785,13.5507246 11.9836666,13.2608696 C12.3113548,12.9710145 12.6317609,12.6376812 12.9448851,12.2608696 C13.2580093,11.884058 13.5893384,11.4782609 13.9388724,11.0434783 C14.171895,10.7681159 14.4413275,10.4166667 14.7471697,9.98913043 C15.053012,9.5615942 15.3661362,9.11231884 15.6865423,8.64130435 C16.0069485,8.17028986 16.3273546,7.69565217 16.6477608,7.2173913 C16.968167,6.73913043 17.2521633,6.30434783 17.4997499,5.91304348 C17.7619004,5.50724638 18.005846,5.17753623 18.2315867,4.92391304 C18.4573274,4.67028986 18.6685042,4.47463768 18.865117,4.33695652 C19.0617299,4.19927536 19.2510608,4.10869565 19.4331098,4.06521739 C19.6151587,4.02173913 19.7935667,4 19.9683337,4 C20.084845,4 20.255971,4.10869565 20.4817117,4.32608696 C20.7074524,4.54347826 20.9295522,4.82971014 21.1480109,5.18478261 C21.3664696,5.53985507 21.5630825,5.94202899 21.7378495,6.39130435 C21.9126165,6.84057971 22,7.29710145 22,7.76086957 C22,8.15217391 21.9708722,8.47463768 21.9126165,8.72826087 C21.8543608,8.98188406 21.7851822,9.21014493 21.7050807,9.41304348 C21.6249792,9.61594203 21.5485186,9.8115942 21.475699,10 C21.4028794,10.1884058 21.3519057,10.4130435 21.3227779,10.673913 C21.308214,10.8623188 21.2827271,11.2065217 21.2463173,11.7065217 C21.2099075,12.2065217 21.1698568,12.7826087 21.126165,13.4347826 C21.0824733,14.0869565 21.0351406,14.7753623 20.9841668,15.5 C20.9331931,16.2246377 20.8895014,16.9021739 20.8530916,17.5326087 C20.8166818,18.1630435 20.783913,18.7065217 20.7547852,19.1630435 C20.7256573,19.6195652 20.7110934,19.8985507 20.7110934,20 L19.8591043,20 L19.8372584,13.4782609 C19.8372584,12.9855072 19.8445404,12.5289855 19.8591043,12.1086957 C19.8736682,11.6884058 19.8627453,11.3297101 19.8263355,11.0326087 C19.7899257,10.7355072 19.7134652,10.5036232 19.5969538,10.3369565 C19.4804425,10.1702899 19.2983935,10.0869565 19.050807,10.0869565 C18.701273,10.115942 18.344457,10.2101449 17.9803591,10.3695652 Z" transform="translate(12.000000, 12.000000) rotate(2.000000) translate(-12.000000, -12.000000) "></path>
                </g>
            </g>
        </g>
    </g>
</svg>